<?xml version="1.0" ?><svg data-name="Layer 1" id="Layer_1" viewBox="0 0 512 512" xmlns="http://www.w3.org/2000/svg" xmlns:xlink="http://www.w3.org/1999/xlink"><defs><style>.cls-1{fill:url(#linear-gradient);}.cls-13,.cls-2,.cls-4,.cls-6,.cls-7{opacity:0.2;}.cls-2{fill:url(#linear-gradient-2);}.cls-3{fill:url(#linear-gradient-3);}.cls-4{fill:#cfe182;}.cls-5,.cls-9{fill:#fff;}.cls-7{fill:#003028;}.cls-11,.cls-8{fill:#bfce69;}.cls-11,.cls-12,.cls-9{fill-rule:evenodd;}.cls-10{opacity:0.55;}.cls-12,.cls-13{fill:#006c32;}</style><linearGradient gradientUnits="userSpaceOnUse" id="linear-gradient" x1="790.8" x2="127.22" y1="29.09" y2="310.84"><stop offset="0.38" stop-color="#8fc73f"/><stop offset="1" stop-color="#00a650"/></linearGradient><linearGradient gradientUnits="userSpaceOnUse" id="linear-gradient-2" x1="365.77" x2="570.59" y1="256.24" y2="256.24"><stop offset="0.31" stop-color="#fff" stop-opacity="0.2"/><stop offset="1" stop-color="#fff"/></linearGradient><linearGradient id="linear-gradient-3" x1="411.1" x2="207.08" xlink:href="#linear-gradient" y1="68.34" y2="315.19"/></defs><path class="cls-1" d="M511.59,52.82V459.66a53.62,53.62,0,0,1-.81,9.3,52.85,52.85,0,0,1-52,43.53H52.83A52.83,52.83,0,0,1,0,459.66V52.82A52.81,52.81,0,0,1,52.83,0H458.76A52.82,52.82,0,0,1,511.59,52.82Z"/><path class="cls-2" d="M459.17,0H437.54a52.82,52.82,0,0,1,52.83,52.82V459.66a53.62,53.62,0,0,1-.81,9.3,52.85,52.85,0,0,1-52,43.53h21.63a52.85,52.85,0,0,0,52-43.53,53.62,53.62,0,0,0,.81-9.3V52.82A52.82,52.82,0,0,0,459.17,0Z"/><path class="cls-3" d="M396.46,256a139.94,139.94,0,0,1-34.74,92.48h0a140.47,140.47,0,0,1-186.86,22.18l-45.18,12.1,12.07-45.06A140.46,140.46,0,1,1,396.46,256Z"/><path class="cls-4" d="M255.17,115.92a139.86,139.86,0,0,0-84.19,28,142.26,142.26,0,0,0-17.64,15.71A140.45,140.45,0,0,1,355.82,353.92h0c-1.27,1.46-2.58,2.89-3.91,4.29q4.69-4.47,9-9.36h0A140.45,140.45,0,0,0,255.17,115.92Z"/><path class="cls-5" d="M257.67,83.75A169.13,169.13,0,0,0,164.8,111.4q-2.09,1.36-4.12,2.78a169.63,169.63,0,0,0-51.8,221.91l-24.7,92.16,92.62-24.82a169.62,169.62,0,0,0,217-47.61c.61-.81,1.2-1.62,1.79-2.43a169.23,169.23,0,0,0,32.19-99.49C427.82,160.08,351.5,83.75,257.67,83.75ZM360.46,345.87c-.54.59-1.08,1.19-1.62,1.77a137.43,137.43,0,0,1-171.6,24.74l-5.84-3.48-6.55,1.75h0l-45.18,12.1,12.07-45.06,1.71-6.38-3.58-5.88A137.47,137.47,0,0,1,169.43,147.9c1-.8,1.93-1.59,2.91-2.36A137.93,137.93,0,0,1,297,121.63l.75.23a138.57,138.57,0,0,1,77.47,59.87l.66,1.07a137.77,137.77,0,0,1-15.44,163.07Z"/><g class="cls-6"><path class="cls-7" d="M114.06,259.54a137.71,137.71,0,0,0,20.17,71.54l3.59,5.87-1.72,6.39L124,388.4l45.19-12.11h0l6.55-1.76L181.6,378A137.44,137.44,0,0,0,352.34,354.2a137.39,137.39,0,0,1-165.1,18.18l-5.84-3.48-6.55,1.75h0l-45.18,12.1,12.07-45.06,1.71-6.38-3.58-5.88a137.39,137.39,0,0,1,17.47-166.17A137.64,137.64,0,0,0,114.06,259.54Z"/><path class="cls-8" d="M257.67,83.75A169.13,169.13,0,0,0,164.8,111.4q-2.09,1.36-4.12,2.78a171.89,171.89,0,0,0-26.05,22.33A171.15,171.15,0,0,1,155,119.82q2-1.42,4.13-2.78A169.1,169.1,0,0,1,252,89.39c93.82,0,170.15,76.33,170.15,170.15A169.21,169.21,0,0,1,390,359c-.58.82-1.18,1.63-1.79,2.43a168.8,168.8,0,0,1-13.12,15.49,172.68,172.68,0,0,0,18.76-21.12c.61-.81,1.2-1.62,1.79-2.43a169.23,169.23,0,0,0,32.19-99.49C427.82,160.08,351.5,83.75,257.67,83.75Z"/></g><path class="cls-9" d="M321,277.56c-7-4.19-16.12-8.86-24.36-5.49-6.33,2.59-10.37,12.5-14.48,17.56-2.1,2.6-4.61,3-7.84,1.7-23.76-9.46-42-25.33-55.08-47.18-2.22-3.4-1.82-6.07.85-9.22,4-4.67,8.94-10,10-16.25s-1.88-13.63-4.48-19.22c-3.32-7.16-7-17.35-14.19-21.4-6.59-3.72-15.26-1.64-21.12,3.14-10.13,8.25-15,21.17-14.87,34A48.13,48.13,0,0,0,176.75,226c2,8.45,5.95,16.34,10.34,23.84a185.66,185.66,0,0,0,10.8,16.41,166.61,166.61,0,0,0,46.82,43.48,141.35,141.35,0,0,0,29.2,13.89c11.45,3.78,21.64,7.71,34,5.37,12.93-2.46,25.68-10.46,30.82-22.93a19.92,19.92,0,0,0,1.43-11.7C338.4,286.25,327.49,281.46,321,277.56Z"/><g class="cls-10"><path class="cls-11" d="M188,183.46c5.87-4.78,14.54-6.86,21.13-3.14,7.16,4,10.87,14.24,14.19,21.39,2.6,5.6,5.55,12.94,4.47,19.23s-6,11.58-10,16.24c-2.68,3.15-3.08,5.83-.86,9.22,13.11,21.86,31.32,37.72,55.08,47.18,3.23,1.3,5.75.9,7.85-1.7q.25-.31.51-.66c-1.72,1.1-3.72,1.07-6.1.11-23.76-9.46-42-25.33-55.08-47.18-2.22-3.4-1.82-6.07.85-9.22,4-4.67,8.94-10,10-16.25s-1.88-13.63-4.48-19.22c-3.32-7.16-7-17.35-14.19-21.4-6.59-3.72-15.26-1.64-21.12,3.14a36.78,36.78,0,0,0-3.9,3.68C186.91,184.39,187.46,183.92,188,183.46Z"/><path class="cls-11" d="M340.16,294.31c-1.76-8.06-12.67-12.85-19.19-16.75-7-4.19-16.12-8.86-24.36-5.49a14.6,14.6,0,0,0-5.3,4.15,11.8,11.8,0,0,1,3-1.89c8.25-3.38,17.36,1.3,24.37,5.49,6.52,3.89,17.43,8.69,19.18,16.75a19.89,19.89,0,0,1-1.42,11.69,33.15,33.15,0,0,1-6.32,9.81A34,34,0,0,0,338.73,306,19.92,19.92,0,0,0,340.16,294.31Z"/></g><g class="cls-6"><path class="cls-12" d="M313.31,323.61c-12.36,2.35-22.55-1.59-34-5.37a141.66,141.66,0,0,1-29.21-13.88,166.9,166.9,0,0,1-46.82-43.48,185.81,185.81,0,0,1-10.8-16.42c-4.39-7.5-8.3-15.38-10.34-23.83a48.13,48.13,0,0,1-1.34-10.78c-.12-10.23,3-20.53,9.39-28.47l-.16.13c-10.12,8.25-15,21.17-14.86,34a48.71,48.71,0,0,0,1.33,10.78c2.05,8.45,6,16.34,10.35,23.84a189.49,189.49,0,0,0,10.79,16.42A166.62,166.62,0,0,0,244.48,310a141.35,141.35,0,0,0,29.2,13.89c11.44,3.78,21.64,7.72,34,5.37,9.91-1.88,19.71-7,26.07-14.94A46.59,46.59,0,0,1,313.31,323.61Z"/></g><path class="cls-13" d="M511.19,469a52.85,52.85,0,0,1-52,43.53H53.24A52.83,52.83,0,0,1,.41,459.66V52.82A52.83,52.83,0,0,1,44.59.71C28.5,117,22.54,460.47,511.19,469Z"/></svg>